<svg width="20" height="20" viewBox="0 0 18 17" fill="none" xmlns="http://www.w3.org/2000/svg">
<path d="M9 0.583191C7.39303 0.583191 5.82214 1.05971 4.486 1.9525C3.14985 2.84529 2.10844 4.11424 1.49348 5.59889C0.87852 7.08354 0.717618 8.7172 1.03112 10.2933C1.34463 11.8694 2.11846 13.3171 3.25476 14.4534C4.39106 15.5897 5.8388 16.3636 7.4149 16.6771C8.99099 16.9906 10.6247 16.8297 12.1093 16.2147C13.594 15.5997 14.8629 14.5583 15.7557 13.2222C16.6485 11.886 17.125 10.3152 17.125 8.70819C17.1227 6.55401 16.266 4.4887 14.7427 2.96546C13.2195 1.44222 11.1542 0.585466 9 0.583191ZM9 15.5832C7.64026 15.5832 6.31105 15.18 5.18046 14.4245C4.04987 13.6691 3.16868 12.5954 2.64833 11.3391C2.12798 10.0829 1.99183 8.70056 2.2571 7.36695C2.52238 6.03333 3.17716 4.80832 4.13864 3.84683C5.10013 2.88535 6.32514 2.23057 7.65876 1.96529C8.99238 1.70002 10.3747 1.83617 11.631 2.35652C12.8872 2.87687 13.9609 3.75806 14.7164 4.88865C15.4718 6.01923 15.875 7.34844 15.875 8.70819C15.8729 10.5309 15.1479 12.2784 13.8591 13.5673C12.5702 14.8561 10.8227 15.5811 9 15.5832ZM14 8.70819C14 8.87395 13.9342 9.03292 13.8169 9.15013C13.6997 9.26734 13.5408 9.33319 13.375 9.33319H9C8.83424 9.33319 8.67527 9.26734 8.55806 9.15013C8.44085 9.03292 8.375 8.87395 8.375 8.70819V4.33319C8.375 4.16743 8.44085 4.00846 8.55806 3.89125C8.67527 3.77404 8.83424 3.70819 9 3.70819C9.16576 3.70819 9.32474 3.77404 9.44195 3.89125C9.55916 4.00846 9.625 4.16743 9.625 4.33319V8.08319H13.375C13.5408 8.08319 13.6997 8.14904 13.8169 8.26625C13.9342 8.38346 14 8.54243 14 8.70819Z" fill="#8B8D9B"/>
</svg>
