<svg width="20" height="20" viewBox="0 0 16 17" fill="none" xmlns="http://www.w3.org/2000/svg">
<path d="M14.25 1.54285H12.375V0.917847C12.375 0.752086 12.3092 0.593115 12.1919 0.475905C12.0747 0.358695 11.9158 0.292847 11.75 0.292847C11.5842 0.292847 11.4253 0.358695 11.3081 0.475905C11.1908 0.593115 11.125 0.752086 11.125 0.917847V1.54285H4.875V0.917847C4.875 0.752086 4.80915 0.593115 4.69194 0.475905C4.57473 0.358695 4.41576 0.292847 4.25 0.292847C4.08424 0.292847 3.92527 0.358695 3.80806 0.475905C3.69085 0.593115 3.625 0.752086 3.625 0.917847V1.54285H1.75C1.41848 1.54285 1.10054 1.67454 0.866116 1.90896C0.631696 2.14338 0.5 2.46133 0.5 2.79285V15.2928C0.5 15.6244 0.631696 15.9423 0.866116 16.1767C1.10054 16.4111 1.41848 16.5428 1.75 16.5428H14.25C14.5815 16.5428 14.8995 16.4111 15.1339 16.1767C15.3683 15.9423 15.5 15.6244 15.5 15.2928V2.79285C15.5 2.46133 15.3683 2.14338 15.1339 1.90896C14.8995 1.67454 14.5815 1.54285 14.25 1.54285ZM3.625 2.79285V3.41785C3.625 3.58361 3.69085 3.74258 3.80806 3.85979C3.92527 3.977 4.08424 4.04285 4.25 4.04285C4.41576 4.04285 4.57473 3.977 4.69194 3.85979C4.80915 3.74258 4.875 3.58361 4.875 3.41785V2.79285H11.125V3.41785C11.125 3.58361 11.1908 3.74258 11.3081 3.85979C11.4253 3.977 11.5842 4.04285 11.75 4.04285C11.9158 4.04285 12.0747 3.977 12.1919 3.85979C12.3092 3.74258 12.375 3.58361 12.375 3.41785V2.79285H14.25V5.29285H1.75V2.79285H3.625ZM14.25 15.2928H1.75V6.54285H14.25V15.2928Z" fill="#8B8D9B"/>
</svg>
